# xmcd
#
# Track frame offsets: 
#        150
#        21533
#        43613
#        62386
#        96027
#        118965
#        132375
#        152289
#        177324
#        199324
#        215939
#        232810
#        255037
#        268885
#        287076
#        302879
#
# Disc length: 4298 seconds
#
# Revision: 73
# Processed by: cddbd v1.5.2PL0 Copyright (c) Steve Scherf et al.
# Submitted via: ExactAudioCopyFreeDBPlugin 1.0
#
DISCID=e810c810
DTITLE=Eagles - The complete greatest hits Disc 2
DYEAR=2003
DGENRE=Rock
TTITLE0=Life in the fast lane
TTITLE1=Wasted time
TTITLE2=Victim of love
TTITLE3=The last resort
TTITLE4=New kid in town
TTITLE5=Please come home for Christmas
TTITLE6=Heartache tonight
TTITLE7=The sad cafe
TTITLE8=I can't tell you why
TTITLE9=The long run
TTITLE10=In the City
TTITLE11=Those shoes
TTITLE12=Seven bridges Road
TTITLE13=Love will keep us alive
TTITLE14=Get over it
TTITLE15=Hole in the world
EXTD=Year: 2003 [CD 2 from 2) YEAR: 2003\nThe album debuted on the Bil
EXTD=lboard 200 on November 8, 2003 at number 3, with 162,000 copies s
EXTD=old. It spent 62 weeks on the chart. The album was certified and 
EXTD=awarded gold, platinum, and double platinum records by the RIAA o
EXTD=n December 17, 2003, and on December 13, 2004, it achieved triple
EXTD=platinum status. The album has sold over 5 million units in the 
EXTD=United States.[2]\nAs of December 2007, it has spent over 325 wee
EXTD=ks in the Irish Album Charts, effectively not having left the cha
EXTD=rt since its release. In the UK the album (as The Complete Greate
EXTD=st Hits) entered the charts on November 1, 2003 at its initial nu
EXTD=mber 27 peak position, the album did however re-enter the charts 
EXTD=in June 2006 when it peaked at number 9 on the UK Albums Chart.
EXTT0=
EXTT1=
EXTT2=
EXTT3=
EXTT4=
EXTT5=
EXTT6=
EXTT7=
EXTT8=
EXTT9=
EXTT10=
EXTT11=
EXTT12=
EXTT13=
EXTT14=
EXTT15=
PLAYORDER=
